<svg width="7" height="12" viewBox="0 0 301 285" version="1.1" xmlns="http://www.w3.org/2000/svg" xmlns:xlink="http://www.w3.org/1999/xlink">
	<g id="Canvas" transform="translate(259 222)">
		<g id="Group">
			<g id="Vector">
				<use xlink:href="#path0_fill" transform="translate(-125 -222)"/>
			</g>
			<g id="Vector">
				<use xlink:href="#path1_fill" transform="translate(-259 -222)"/>
			</g>
		</g>
	</g>
	<defs>
		<path id="path0_fill" d="M 163.307 135.9L 30.256 2.857C 28.357 0.955 26.167 0 23.692 0C 21.22 0 19.033 0.955 17.13 2.857L 2.853 17.132C 0.949997 19.035 1.83105e-07 21.221 1.83105e-07 23.699C 1.83105e-07 26.177 0.949997 28.363 2.853 30.266L 115.06 142.47L 2.854 254.677C 0.950997 256.58 0.000999634 258.77 0.000999634 261.241C 0.000999634 263.718 0.950997 265.908 2.854 267.811L 17.131 282.082C 19.033 283.987 21.22 284.936 23.693 284.936C 26.171 284.936 28.358 283.985 30.256 282.082L 163.307 149.038C 165.209 147.136 166.158 144.945 166.158 142.471C 166.158 139.997 165.209 137.807 163.307 135.9Z"/>
		<path id="path1_fill" d="M 166.162 142.471C 166.162 139.997 165.215 137.806 163.305 135.9L 30.263 2.857C 28.361 0.955 26.171 0 23.697 0C 21.223 0 19.032 0.955 17.13 2.857L 2.856 17.133C 0.95 19.036 1.71661e-07 21.222 1.71661e-07 23.7C 1.71661e-07 26.178 0.95 28.364 2.856 30.267L 115.06 142.471L 2.856 254.677C 0.95 256.58 1.71661e-07 258.77 1.71661e-07 261.241C 1.71661e-07 263.718 0.95 265.908 2.856 267.811L 17.129 282.082C 19.032 283.987 21.222 284.936 23.696 284.936C 26.17 284.936 28.36 283.985 30.263 282.082L 163.305 149.038C 165.215 147.136 166.162 144.945 166.162 142.471Z"/>
	</defs>
</svg>
